<?xml version="1.0" encoding="UTF-8"?>
<!DOCTYPE svg PUBLIC "-//W3C//DTD SVG 1.1//EN" "http://www.w3.org/Graphics/SVG/1.1/DTD/svg11.dtd">
<svg version="1.1" xmlns="http://www.w3.org/2000/svg" xmlns:xlink="http://www.w3.org/1999/xlink" x="0" y="0" width="1136" height="245" viewBox="0, 0, 1136, 245">
  <g id="Layer_1" transform="translate(-262, -189)">
    <g>
      <text transform="matrix(1, 0, 0, 1, 830, 311.5)">
        <tspan x="-518.24" y="52.5" font-family="Prompt-Light" font-size="160" fill="#5D5FEF">Yashar</tspan>
        <tspan x="-19.52" y="52.5" font-family="Prompt-SemiBold" font-size="160" fill="#5D5FEF">Moradi</tspan>
      </text>
      <path d="M360.4,321.6 L319.76,252.16 L333.04,252.16 L366.64,310.24 L400.4,252.16 L413.52,252.16 L372.88,321.6 L372.88,364 L360.4,364 z M439.6,366.4 Q425.68,366.4 417.6,359.44 Q409.52,352.48 409.52,340.32 Q409.52,327.68 417.36,320.88 Q425.2,314.08 440.08,314.08 Q456.72,314.08 468.72,320.96 L468.72,315.2 Q468.72,304.8 462.8,299.76 Q456.88,294.72 444.08,294.72 Q430.48,294.72 418.96,299.84 L418.96,289.44 Q423.76,287.36 431.12,286.08 Q438.48,284.8 445.2,284.8 Q463.44,284.8 472.24,293.04 Q481.04,301.28 481.04,315.84 L481.04,364 L469.52,364 L469.52,354.08 Q459.44,366.4 439.6,366.4 z M442.64,356.32 Q451.28,356.32 458.24,352.88 Q465.2,349.44 468.72,343.2 L468.72,330.88 Q462.48,327.2 456.32,325.52 Q450.16,323.84 442.48,323.84 Q431.6,323.84 426.72,327.92 Q421.84,332 421.84,340.32 Q421.84,356.32 442.64,356.32 z M526.96,366.4 Q519.44,366.4 510.8,364.24 Q502.16,362.08 497.36,358.88 L497.36,348.48 Q503.44,352.16 511.36,354.4 Q519.28,356.64 526.64,356.64 Q536.56,356.64 540.96,353.84 Q545.36,351.04 545.36,345.44 Q545.36,341.12 543.44,338.64 Q541.52,336.16 537.04,334.24 Q532.56,332.32 523.12,329.76 Q513.84,327.2 508.32,324.4 Q502.8,321.6 499.92,317.28 Q497.04,312.96 497.04,306.24 Q497.04,295.84 505.44,290.32 Q513.84,284.8 527.76,284.8 Q535.28,284.8 541.92,286.16 Q548.56,287.52 553.04,289.92 L553.04,300.32 Q548.4,297.76 541.84,296.24 Q535.28,294.72 528.24,294.72 Q518.96,294.72 514.16,297.44 Q509.36,300.16 509.36,306.24 Q509.36,310.4 511.04,312.64 Q512.72,314.88 517.28,316.72 Q521.84,318.56 531.92,321.28 Q546.32,325.28 552,330.64 Q557.68,336 557.68,345.44 Q557.68,355.2 550.08,360.8 Q542.48,366.4 526.96,366.4 z M576.88,245.76 L589.2,245.76 L589.2,298.4 Q600.24,284.8 619.76,284.8 Q634.96,284.8 642.4,292.8 Q649.84,300.8 649.84,314.24 L649.84,364 L637.52,364 L637.52,315.36 Q637.52,305.44 632.72,300.08 Q627.92,294.72 617.36,294.72 Q599.6,294.72 589.2,310.72 L589.2,364 L576.88,364 z M695.92,366.4 Q682,366.4 673.92,359.44 Q665.84,352.48 665.84,340.32 Q665.84,327.68 673.68,320.88 Q681.52,314.08 696.4,314.08 Q713.04,314.08 725.04,320.96 L725.04,315.2 Q725.04,304.8 719.12,299.76 Q713.2,294.72 700.4,294.72 Q686.8,294.72 675.28,299.84 L675.28,289.44 Q680.08,287.36 687.44,286.08 Q694.8,284.8 701.52,284.8 Q719.76,284.8 728.56,293.04 Q737.36,301.28 737.36,315.84 L737.36,364 L725.84,364 L725.84,354.08 Q715.76,366.4 695.92,366.4 z M698.96,356.32 Q707.6,356.32 714.56,352.88 Q721.52,349.44 725.04,343.2 L725.04,330.88 Q718.8,327.2 712.64,325.52 Q706.48,323.84 698.8,323.84 Q687.92,323.84 683.04,327.92 Q678.16,332 678.16,340.32 Q678.16,356.32 698.96,356.32 z M758.96,287.2 L770.96,287.2 L770.96,302.24 Q780.24,287.2 805.68,287.2 L805.68,297.12 Q777.84,297.12 771.28,315.52 L771.28,364 L758.96,364 z M818.8,252.16 L842.8,252.16 L877.2,327.04 L911.76,252.16 L935.6,252.16 L935.6,364 L912.4,364 L912.4,300.48 L882.8,364 L871.6,364 L842.16,300.48 L842.16,364 L818.8,364 z M995.44,366.4 Q981.52,366.4 971.04,361.36 Q960.56,356.32 954.88,347.12 Q949.2,337.92 949.2,325.6 Q949.2,313.6 954.88,304.32 Q960.56,295.04 971.04,289.92 Q981.52,284.8 995.44,284.8 Q1009.2,284.8 1019.68,289.92 Q1030.16,295.04 1035.84,304.32 Q1041.52,313.6 1041.52,325.6 Q1041.52,337.92 1035.84,347.12 Q1030.16,356.32 1019.76,361.36 Q1009.36,366.4 995.44,366.4 z M995.44,347.52 Q1005.2,347.52 1010.96,341.52 Q1016.72,335.52 1016.72,325.6 Q1016.72,315.36 1011.04,309.52 Q1005.36,303.68 995.44,303.68 Q985.52,303.68 979.76,309.52 Q974,315.36 974,325.6 Q974,335.52 979.84,341.52 Q985.68,347.52 995.44,347.52 z M1055.12,287.2 L1078.48,287.2 L1078.48,298.24 Q1083.12,292.64 1091.44,289.68 Q1099.76,286.72 1110.32,286.72 L1110.32,305.12 Q1099.28,305.12 1090.88,308.48 Q1082.48,311.84 1079.28,318.72 L1079.28,364 L1055.12,364 z M1142,366.4 Q1127.92,366.4 1119.04,359.28 Q1110.16,352.16 1110.16,339.84 Q1110.16,327.04 1118.64,319.92 Q1127.12,312.8 1142.64,312.8 Q1149.52,312.8 1155.76,314.24 Q1162,315.68 1166.8,318.24 L1166.8,316.32 Q1166.8,309.12 1161.68,305.76 Q1156.56,302.4 1146,302.4 Q1131.92,302.4 1120.08,307.68 L1120.08,290.08 Q1125.2,287.84 1133.36,286.32 Q1141.52,284.8 1149.68,284.8 Q1170.48,284.8 1180.72,293.36 Q1190.96,301.92 1190.96,317.28 L1190.96,364 L1168.24,364 L1168.24,356.96 Q1158.48,366.4 1142,366.4 z M1148.56,350.4 Q1154.48,350.4 1159.28,348.16 Q1164.08,345.92 1166.8,341.92 L1166.8,334.24 Q1158.64,328.8 1148.88,328.8 Q1142.16,328.8 1138.56,331.6 Q1134.96,334.4 1134.96,339.84 Q1134.96,344.96 1138.48,347.68 Q1142,350.4 1148.56,350.4 z M1244.4,366.4 Q1232.56,366.4 1223.36,361.36 Q1214.16,356.32 1208.96,347.12 Q1203.76,337.92 1203.76,325.76 Q1203.76,313.76 1208.88,304.48 Q1214,295.2 1223.28,290 Q1232.56,284.8 1244.4,284.8 Q1253.04,284.8 1260.24,287.2 Q1267.44,289.6 1272.4,294.08 L1272.4,245.76 L1296.56,245.76 L1296.56,364 L1273.2,364 L1273.2,355.68 Q1267.28,361.28 1260.32,363.84 Q1253.36,366.4 1244.4,366.4 z M1250.64,347.68 Q1258.16,347.68 1264,343.68 Q1269.84,339.68 1272.4,332.96 L1272.4,318.4 Q1270.16,311.84 1264.16,307.76 Q1258.16,303.68 1250.64,303.68 Q1240.88,303.68 1234.72,309.76 Q1228.56,315.84 1228.56,325.76 Q1228.56,335.68 1234.72,341.68 Q1240.88,347.68 1250.64,347.68 z M1326.64,275.36 Q1321.04,275.36 1317.2,271.68 Q1313.36,268 1313.36,262.4 Q1313.36,256.96 1317.2,253.2 Q1321.04,249.44 1326.64,249.44 Q1332.24,249.44 1336.08,253.2 Q1339.92,256.96 1339.92,262.4 Q1339.92,268 1336.08,271.68 Q1332.24,275.36 1326.64,275.36 z M1314.48,287.2 L1338.8,287.2 L1338.8,364 L1314.48,364 z" fill-opacity="0" stroke="#0083CA" stroke-width="1"/>
    </g>
    <g>
      <g>
        <path d="M263,383 L276,383 L276,421 L314,421 L314,433 L263,433 L263,383 z" fill="#5D5FEF"/>
        <path d="M263,383 L276,383 L276,421 L314,421 L314,433 L263,433 L263,383 z" fill-opacity="0" stroke="#0083CA" stroke-width="1"/>
      </g>
      <g>
        <path d="M1347,433 L1347,420 L1385,420 L1385,382 L1397,382 L1397,433 L1347,433 z" fill="#5D5FEF"/>
        <path d="M1347,433 L1347,420 L1385,420 L1385,382 L1397,382 L1397,433 L1347,433 z" fill-opacity="0" stroke="#0083CA" stroke-width="1"/>
      </g>
      <g>
        <path d="M1397,240 L1384,240 L1384,202 L1346,202 L1346,190 L1397,190 L1397,240 z" fill="#5D5FEF"/>
        <path d="M1397,240 L1384,240 L1384,202 L1346,202 L1346,190 L1397,190 L1397,240 z" fill-opacity="0" stroke="#0083CA" stroke-width="1"/>
      </g>
      <g>
        <path d="M313,190 L313,203 L275,203 L275,241 L263,241 L263,190 L313,190 z" fill="#5D5FEF"/>
        <path d="M313,190 L313,203 L275,203 L275,241 L263,241 L263,190 L313,190 z" fill-opacity="0" stroke="#0083CA" stroke-width="1"/>
      </g>
    </g>
  </g>
</svg>
