<svg width="3344" height="517" viewBox="0 0 3344 517" fill="none" xmlns="http://www.w3.org/2000/svg">
<path d="M391.078 445.724L368.49 453.93C356.98 458.115 349.176 468.792 348.151 481.125C347.567 488.187 345.662 495.163 342.464 501.654C372.004 490.832 399.006 474.663 422.341 454.298C420.503 453.232 418.751 451.992 417.094 450.578L416.979 450.481C409.817 444.319 399.935 442.508 391.078 445.724Z" fill="#7879F1"/>
<path d="M217.495 493.196L214.948 493.477C204.004 494.698 194.083 499.765 186.327 507.428C207.613 513.474 230.02 516.787 253.164 517C249.946 513.832 247.189 510.383 244.89 506.711C238.982 497.304 228.44 491.976 217.495 493.196Z" fill="#7879F1"/>
<path d="M115.221 52.5391C125.39 61.8688 130.704 74.4246 131.173 87.1258C131.365 92.2218 134.85 96.5815 139.753 97.7828L166.832 104.41C174.186 106.202 182.085 104.894 188.128 100.273C188.501 99.9917 188.884 99.7108 189.286 99.4395C197.253 94.111 207.968 94.6341 215.341 100.767C226.429 109.971 226.142 127.196 214.479 135.983C206.493 142.019 195.778 141.864 187.917 135.644C185.485 133.716 183.579 131.41 182.191 128.892C178.006 121.306 170.978 115.745 162.628 113.701L136.65 107.345C132.198 106.26 127.573 108.324 125.361 112.383L125.303 112.48C123.168 116.404 123.925 121.306 127.151 124.367L200.537 194.112C211.357 204.401 226.927 207.918 240.974 203.055C260.594 196.254 283.202 200.768 298.848 216.608C309.563 227.449 315.03 241.575 315.27 255.778C315.451 266.764 322.911 276.278 333.281 279.543L348.87 284.455C358.608 287.516 369.217 284.862 376.408 277.547L376.523 277.431L376.581 277.382C379.779 274.146 380.794 269.322 379.176 265.049L350.421 189.113C346.696 179.299 338.882 171.849 329.25 167.925C324.826 166.123 320.756 163.159 317.501 159.031C309.39 148.762 309.208 133.871 317.098 123.427C328.484 108.372 350.411 108.072 362.218 122.517C370.213 132.292 370.864 146.543 363.912 157.104C363.855 157.2 363.788 157.288 363.731 157.375C357.937 165.978 356.377 176.79 360.054 186.517L387.545 259.101C389.412 264.032 394.247 267.181 399.447 266.774C409.654 265.989 420.13 269.535 427.933 277.431C442.67 292.341 442.115 316.881 426.248 331.055C412.46 343.369 391.289 343.165 377.72 330.6C373.191 326.414 369.964 321.357 368.039 315.941C364.353 305.594 356.453 297.35 346.064 294.085L329.92 288.998C318.985 285.559 307.063 288.543 298.982 296.749L298.886 296.846C276.997 319.071 241.434 319.08 219.516 296.885L219.468 296.826C216.566 293.891 212.047 293.348 208.552 295.528L184.747 310.332C173.123 317.569 166.42 330.483 166.411 344.298C166.411 348.116 166.028 351.942 165.271 355.702C162.341 370.195 167.856 385.086 179.931 393.447L243.004 437.121C245.992 439.185 250.004 438.807 252.551 436.22L252.599 436.172C274.517 413.966 310.089 413.995 331.979 436.22L332.543 436.792C341.19 445.579 354.079 448.505 365.607 444.319L387.142 436.491C396.411 433.12 402.932 424.924 404.866 415.158C406.446 407.175 410.659 399.618 417.515 393.921C430.883 382.819 450.579 382.945 463.822 394.202C465.91 395.985 467.748 397.942 469.337 400.035C495.679 359.373 511 310.748 511 258.51C511 115.735 396.603 0 255.5 0C200.652 0 149.855 17.4775 108.23 47.2396C110.682 48.7703 113.028 50.5336 115.221 52.5391Z" fill="#7879F1"/>
<path d="M127.468 465.023C140.749 454.008 160.311 454.066 173.535 465.149C174.598 466.04 175.593 466.98 176.532 467.949C187.046 478.925 201.658 484.864 216.662 483.188H216.672C226.802 482.055 235.286 474.595 237.402 464.5C237.958 461.826 238.705 459.2 239.653 456.623C241.309 452.08 239.681 446.984 235.736 444.242L176.292 403.086C162.705 393.679 145.45 391.587 130.034 397.419C110.069 404.985 86.7146 400.645 70.6663 384.408C47.446 360.923 48.8345 321.967 74.8125 300.324C94.4229 283.98 122.967 283.215 143.439 298.444C144.703 299.384 145.91 300.353 147.059 301.37C155.332 308.627 167.426 309.324 176.752 303.521L201.045 288.417C205.689 285.52 207.604 279.785 205.899 274.544C202.883 265.262 202.299 255.351 204.138 245.828C207.661 227.624 201.571 208.877 188.214 196.176L123.226 134.404C118.524 129.938 111.534 128.998 105.875 132.118C105.798 132.166 105.712 132.205 105.636 132.253C95.6772 137.669 89.616 148.326 89.999 159.758L90.1713 165.077C90.631 178.698 96.2038 191.632 105.751 201.233L105.875 201.359C106.957 202.444 107.895 203.617 108.738 204.837C112.032 207.957 114.656 211.9 116.236 216.521C121.741 232.681 112.319 250.401 95.3612 254.305C83.009 257.144 69.1055 250.478 63.4847 238.988C60.976 233.873 60.0951 228.486 60.5739 223.322C60.775 221.171 61.0239 219.03 61.2825 216.889C61.9719 211.212 64.4614 205.719 68.7704 201.359L68.8757 201.253C76.6317 193.444 80.8353 182.719 80.4715 171.646L80.1651 162.548C79.7438 149.789 72.1792 138.599 60.909 132.883C56.3799 130.587 52.138 127.526 48.3557 123.708C46.0193 121.345 43.9797 118.797 42.2274 116.113C15.5408 156.949 0 205.884 0 258.51C0 350.141 47.1204 430.64 118.189 476.552C120.401 472.27 123.484 468.336 127.468 465.023Z" fill="#7879F1"/>
<path d="M635.418 169.747L575 64.8718H607.127L649.443 138.655L691.879 64.8718H724.006L663.349 169.747V249.51H635.418V169.747Z" fill="#7879F1"/>
<path d="M837.17 204.666H757.931L737.313 249.51H707.224L798.809 53.2721L887.158 249.51H856.59L837.17 204.666ZM825.781 178.477L798.33 115.695L769.559 178.477H825.781Z" fill="#7879F1"/>
<path d="M1015.07 92.3761L992.41 105.769C988.174 98.435 984.138 93.6516 980.302 91.4194C976.306 88.8683 971.152 87.5927 964.838 87.5927C957.086 87.5927 950.653 89.7851 945.538 94.1698C940.423 98.4749 937.866 103.896 937.866 110.433C937.866 119.442 944.579 126.697 958.005 132.198L976.466 139.731C991.491 145.79 1002.48 153.205 1009.43 161.974C1016.38 170.664 1019.86 181.347 1019.86 194.023C1019.86 211.003 1014.19 225.035 1002.84 236.116C991.411 247.277 977.225 252.858 960.283 252.858C944.219 252.858 930.953 248.114 920.484 238.627C910.174 229.14 903.741 215.787 901.184 198.567L929.475 192.348C930.753 203.191 932.991 210.685 936.188 214.83C941.942 222.802 950.333 226.789 961.362 226.789C970.073 226.789 977.305 223.879 983.059 218.059C988.813 212.239 991.69 204.865 991.69 195.936C991.69 192.348 991.171 189.08 990.132 186.13C989.173 183.101 987.615 180.35 985.457 177.879C983.379 175.328 980.662 172.976 977.305 170.823C973.949 168.591 969.953 166.478 965.318 164.485L947.456 157.071C922.122 146.388 909.455 130.763 909.455 110.194C909.455 96.3224 914.77 84.7227 925.399 75.3951C936.028 65.9879 949.254 61.2842 965.078 61.2842C986.416 61.2842 1003.08 71.6482 1015.07 92.3761Z" fill="#7879F1"/>
<path d="M1081.48 137.101H1161.32V64.8718H1189.25V249.51H1161.32V163.289H1081.48V249.51H1053.55V64.8718H1081.48V137.101Z" fill="#7879F1"/>
<path d="M1342.33 204.666H1263.09L1242.47 249.51H1212.38L1303.97 53.2721L1392.32 249.51H1361.75L1342.33 204.666ZM1330.94 178.477L1303.49 115.695L1274.72 178.477H1330.94Z" fill="#7879F1"/>
<path d="M1478.27 170.823L1535.57 249.51H1501.4L1448.54 173.932H1443.5V249.51H1415.57V64.8718H1448.3C1472.75 64.8718 1490.42 69.4558 1501.28 78.6239C1513.27 88.8284 1519.27 102.302 1519.27 119.043C1519.27 132.118 1515.51 143.359 1508 152.766C1500.49 162.173 1490.58 168.192 1478.27 170.823ZM1443.5 149.657H1452.38C1478.83 149.657 1492.05 139.572 1492.05 119.402C1492.05 100.508 1479.19 91.0607 1453.45 91.0607H1443.5V149.657Z" fill="#7879F1"/>
<path d="M1632.79 249.51L1671.75 51L1735.28 194.501L1801.1 51L1836.1 249.51H1807.45L1789.59 138.057L1734.8 258L1681.58 137.938L1661.68 249.51H1632.79Z" fill="#7879F1"/>
<path d="M1866.19 156.354C1866.19 130.364 1875.74 108.042 1894.84 89.3865C1913.86 70.7314 1936.72 61.4038 1963.41 61.4038C1989.78 61.4038 2012.4 70.8111 2031.26 89.6256C2050.2 108.44 2059.67 131.042 2059.67 157.43C2059.67 183.977 2050.16 206.499 2031.14 224.995C2012.04 243.57 1988.98 252.858 1961.97 252.858C1938.07 252.858 1916.62 244.607 1897.6 228.104C1876.66 209.847 1866.19 185.931 1866.19 156.354ZM1894.36 156.712C1894.36 177.121 1901.23 193.903 1914.98 207.057C1928.64 220.211 1944.43 226.789 1962.33 226.789C1981.75 226.789 1998.13 220.092 2011.48 206.698C2024.83 193.146 2031.5 176.643 2031.5 157.191C2031.5 137.499 2024.91 120.997 2011.72 107.683C1998.61 94.2894 1982.39 87.5927 1963.05 87.5927C1943.79 87.5927 1927.53 94.2894 1914.26 107.683C1900.99 120.917 1894.36 137.26 1894.36 156.712Z" fill="#7879F1"/>
<path d="M2157.49 170.823L2214.79 249.51H2180.62L2127.76 173.932H2122.72V249.51H2094.79V64.8718H2127.52C2151.97 64.8718 2169.64 69.4558 2180.5 78.6239C2192.49 88.8284 2198.49 102.302 2198.49 119.043C2198.49 132.118 2194.73 143.359 2187.22 152.766C2179.71 162.173 2169.8 168.192 2157.49 170.823ZM2122.72 149.657H2131.6C2158.05 149.657 2171.27 139.572 2171.27 119.402C2171.27 100.508 2158.41 91.0607 2132.67 91.0607H2122.72V149.657Z" fill="#7879F1"/>
<path d="M2351.45 204.666H2272.21L2251.59 249.51H2221.5L2313.09 53.2721L2401.44 249.51H2370.87L2351.45 204.666ZM2340.06 178.477L2312.61 115.695L2283.84 178.477H2340.06Z" fill="#7879F1"/>
<path d="M2424.69 249.51V64.8718H2463.53C2482.15 64.8718 2496.86 66.7054 2507.65 70.3726C2519.24 73.9601 2529.74 80.0589 2539.17 88.669C2558.28 106.049 2567.83 128.889 2567.83 157.191C2567.83 185.572 2557.88 208.532 2537.98 226.071C2527.99 234.841 2517.52 240.939 2506.57 244.367C2496.34 247.795 2481.83 249.51 2463.05 249.51H2424.69ZM2452.62 223.321H2465.21C2477.76 223.321 2488.19 222.005 2496.5 219.374C2504.81 216.584 2512.32 212.159 2519.04 206.101C2532.78 193.584 2539.65 177.281 2539.65 157.191C2539.65 136.941 2532.86 120.518 2519.28 107.922C2507.05 96.6811 2489.03 91.0607 2465.21 91.0607H2452.62V223.321Z" fill="#7879F1"/>
<path d="M2631 64.8718V249.51H2603.07V64.8718H2631Z" fill="#7879F1"/>
<path d="M1524.57 479C1509.37 479 1495.97 476.067 1484.37 470.2C1472.9 464.333 1464.03 455.933 1457.77 445C1451.5 433.933 1448.37 421 1448.37 406.2C1448.37 391.4 1451.5 378.533 1457.77 367.6C1464.03 356.533 1472.9 348.067 1484.37 342.2C1495.97 336.2 1509.37 333.2 1524.57 333.2C1534.57 333.2 1543.5 334.2 1551.37 336.2C1559.23 338.2 1566.5 341.333 1573.17 345.6V379.2C1567.3 374.533 1560.63 371.133 1553.17 369C1545.83 366.867 1537.37 365.8 1527.77 365.8C1514.03 365.8 1503.43 369.4 1495.97 376.6C1488.5 383.667 1484.77 393.533 1484.77 406.2C1484.77 418.867 1488.5 428.8 1495.97 436C1503.57 443.2 1514.17 446.8 1527.77 446.8C1537.37 446.8 1545.97 445.667 1553.57 443.4C1561.17 441.133 1568.23 437.533 1574.77 432.6V466C1562.1 474.667 1545.37 479 1524.57 479ZM1650.82 479C1636.68 479 1623.88 475.933 1612.42 469.8C1601.08 463.667 1592.08 455.133 1585.42 444.2C1578.88 433.133 1575.62 420.467 1575.62 406.2C1575.62 391.933 1578.88 379.267 1585.42 368.2C1592.08 357.133 1601.08 348.533 1612.42 342.4C1623.88 336.267 1636.68 333.2 1650.82 333.2C1664.82 333.2 1677.48 336.267 1688.82 342.4C1700.28 348.533 1709.28 357.133 1715.82 368.2C1722.35 379.267 1725.62 391.933 1725.62 406.2C1725.62 420.467 1722.35 433.133 1715.82 444.2C1709.28 455.133 1700.28 463.667 1688.82 469.8C1677.48 475.933 1664.82 479 1650.82 479ZM1650.82 445.8C1657.88 445.8 1664.35 444.2 1670.22 441C1676.08 437.8 1680.75 433.2 1684.22 427.2C1687.68 421.2 1689.42 414.2 1689.42 406.2C1689.42 398.2 1687.68 391.267 1684.22 385.4C1680.88 379.4 1676.28 374.8 1670.42 371.6C1664.55 368.267 1658.02 366.6 1650.82 366.6C1643.48 366.6 1636.88 368.267 1631.02 371.6C1625.15 374.8 1620.48 379.4 1617.02 385.4C1613.68 391.267 1612.02 398.2 1612.02 406.2C1612.02 414.2 1613.68 421.2 1617.02 427.2C1620.48 433.2 1625.15 437.8 1631.02 441C1637.02 444.2 1643.62 445.8 1650.82 445.8ZM1735.58 336.2H1770.58L1821.98 419.4V336.2H1857.38V476H1822.58L1770.98 392.6V476H1735.58V336.2ZM1915.02 479C1906.22 479 1897.49 478.133 1888.82 476.4C1880.16 474.8 1873.02 472.533 1867.42 469.6V437.8C1874.62 441.533 1882.09 444.333 1889.82 446.2C1897.69 448.067 1905.16 449 1912.22 449C1918.76 449 1923.69 448 1927.02 446C1930.36 444 1932.02 441.133 1932.02 437.4C1932.02 434.6 1931.09 432.2 1929.22 430.2C1927.49 428.067 1924.89 426.133 1921.42 424.4C1917.96 422.667 1912.56 420.267 1905.22 417.2C1892.29 411.733 1882.89 405.667 1877.02 399C1871.16 392.333 1868.22 384.133 1868.22 374.4C1868.22 366.4 1870.42 359.267 1874.82 353C1879.36 346.733 1885.62 341.867 1893.62 338.4C1901.62 334.933 1910.82 333.2 1921.22 333.2C1929.76 333.2 1937.36 333.867 1944.02 335.2C1950.69 336.533 1957.09 338.667 1963.22 341.6V372.6C1951.49 366.467 1939.69 363.4 1927.82 363.4C1921.42 363.4 1916.29 364.467 1912.42 366.6C1908.69 368.6 1906.82 371.533 1906.82 375.4C1906.82 379.267 1908.76 382.4 1912.62 384.8C1916.49 387.2 1923.62 390.467 1934.02 394.6C1943.49 398.467 1950.82 402.267 1956.02 406C1961.36 409.733 1965.22 414.067 1967.62 419C1970.02 423.933 1971.22 430.2 1971.22 437.8C1971.22 450.733 1966.49 460.867 1957.02 468.2C1947.69 475.4 1933.69 479 1915.02 479ZM2043.89 479C2022.82 479 2006.96 473.4 1996.29 462.2C1985.62 450.867 1980.29 435.933 1980.29 417.4V336.2H2015.69V417.8C2015.69 427.133 2018.16 434.2 2023.09 439C2028.16 443.8 2035.09 446.2 2043.89 446.2C2052.69 446.2 2059.56 443.8 2064.49 439C2069.42 434.2 2071.89 427.133 2071.89 417.8V336.2H2107.29V417.4C2107.29 436.067 2101.96 451 2091.29 462.2C2080.76 473.4 2064.96 479 2043.89 479ZM2120.26 336.2H2155.66V446.2H2216.46V476H2120.26V336.2ZM2233.81 366H2194.41V336.2H2308.81V366H2269.21V476H2233.81V366ZM2315.77 336.2H2351.17V476H2315.77V336.2ZM2365.09 336.2H2400.09L2451.49 419.4V336.2H2486.89V476H2452.09L2400.49 392.6V476H2365.09V336.2ZM2573.14 479C2557.94 479 2544.54 476.067 2532.94 470.2C2521.47 464.333 2512.6 455.933 2506.34 445C2500.07 433.933 2496.94 421 2496.94 406.2C2496.94 391.4 2500.07 378.533 2506.34 367.6C2512.6 356.533 2521.47 348.067 2532.94 342.2C2544.54 336.2 2557.94 333.2 2573.14 333.2C2583.27 333.2 2592.2 334.2 2599.94 336.2C2607.8 338.067 2615.07 341.133 2621.74 345.4V379C2615.87 374.333 2609.2 371 2601.74 369C2594.4 366.867 2585.94 365.8 2576.34 365.8C2568.07 365.8 2560.67 367.467 2554.14 370.8C2547.74 374 2542.67 378.667 2538.94 384.8C2535.2 390.933 2533.34 398.067 2533.34 406.2C2533.34 418.867 2537 428.867 2544.34 436.2C2551.8 443.533 2561.87 447.2 2574.54 447.2C2581.6 447.2 2587.54 446 2592.34 443.6V421.2H2570.94V396.4H2625.94V466C2611.67 474.667 2594.07 479 2573.14 479Z" fill="#7879F1"/>
</svg>
