<svg width="3344" height="517" viewBox="0 0 3344 517" fill="none" xmlns="http://www.w3.org/2000/svg">
<path d="M627.75 278.781L549 141.75H590.875L646.031 238.156L701.344 141.75H743.219L664.156 278.781V383H627.75V278.781ZM890.719 324.406H787.438L760.562 383H721.344L840.719 126.594L955.875 383H916.031L890.719 324.406ZM875.875 290.188L840.094 208.156L802.594 290.188H875.875ZM1122.59 177.688L1093.06 195.188C1087.54 185.604 1082.28 179.354 1077.28 176.438C1072.07 173.104 1065.35 171.438 1057.12 171.438C1047.02 171.438 1038.64 174.302 1031.97 180.031C1025.3 185.656 1021.97 192.74 1021.97 201.281C1021.97 213.052 1030.72 222.531 1048.22 229.719L1072.28 239.562C1091.86 247.479 1106.19 257.167 1115.25 268.625C1124.31 279.979 1128.84 293.938 1128.84 310.5C1128.84 332.688 1121.45 351.021 1106.66 365.5C1091.76 380.083 1073.27 387.375 1051.19 387.375C1030.25 387.375 1012.96 381.177 999.312 368.781C985.875 356.385 977.49 338.938 974.156 316.438L1011.03 308.312C1012.7 322.479 1015.61 332.271 1019.78 337.688C1027.28 348.104 1038.22 353.312 1052.59 353.312C1063.95 353.312 1073.38 349.51 1080.88 341.906C1088.38 334.302 1092.12 324.667 1092.12 313C1092.12 308.312 1091.45 304.042 1090.09 300.188C1088.84 296.229 1086.81 292.635 1084 289.406C1081.29 286.073 1077.75 283 1073.38 280.188C1069 277.271 1063.79 274.51 1057.75 271.906L1034.47 262.219C1001.45 248.26 984.938 227.844 984.938 200.969C984.938 182.844 991.865 167.688 1005.72 155.5C1019.57 143.208 1036.81 137.062 1057.44 137.062C1085.25 137.062 1106.97 150.604 1122.59 177.688ZM1209.16 236.125H1313.22V141.75H1349.62V383H1313.22V270.344H1209.16V383H1172.75V141.75H1209.16V236.125ZM1549.16 324.406H1445.88L1419 383H1379.78L1499.16 126.594L1614.31 383H1574.47L1549.16 324.406ZM1534.31 290.188L1498.53 208.156L1461.03 290.188H1534.31ZM1726.34 280.188L1801.03 383H1756.5L1687.59 284.25H1681.03V383H1644.62V141.75H1687.28C1719.16 141.75 1742.18 147.74 1756.34 159.719C1771.97 173.052 1779.78 190.656 1779.78 212.531C1779.78 229.615 1774.89 244.302 1765.09 256.594C1755.3 268.885 1742.39 276.75 1726.34 280.188ZM1681.03 252.531H1692.59C1727.07 252.531 1744.31 239.354 1744.31 213C1744.31 188.312 1727.54 175.969 1694 175.969H1681.03V252.531ZM1927.75 383L1978.53 123.625L2061.34 311.125L2147.12 123.625L2192.75 383H2155.41L2132.12 237.375L2060.72 394.094L1991.34 237.219L1965.41 383H1927.75ZM2231.97 261.281C2231.97 227.323 2244.42 198.156 2269.31 173.781C2294.1 149.406 2323.9 137.219 2358.69 137.219C2393.06 137.219 2422.54 149.51 2447.12 174.094C2471.81 198.677 2484.16 228.208 2484.16 262.688C2484.16 297.375 2471.76 326.802 2446.97 350.969C2422.07 375.24 2392.02 387.375 2356.81 387.375C2325.67 387.375 2297.7 376.594 2272.91 355.031C2245.61 331.177 2231.97 299.927 2231.97 261.281ZM2268.69 261.75C2268.69 288.417 2277.65 310.344 2295.56 327.531C2313.38 344.719 2333.95 353.312 2357.28 353.312C2382.59 353.312 2403.95 344.562 2421.34 327.062C2438.74 309.354 2447.44 287.792 2447.44 262.375C2447.44 236.646 2438.84 215.083 2421.66 197.688C2404.57 180.188 2383.43 171.438 2358.22 171.438C2333.11 171.438 2311.92 180.188 2294.62 197.688C2277.33 214.979 2268.69 236.333 2268.69 261.75ZM2611.66 280.188L2686.34 383H2641.81L2572.91 284.25H2566.34V383H2529.94V141.75H2572.59C2604.47 141.75 2627.49 147.74 2641.66 159.719C2657.28 173.052 2665.09 190.656 2665.09 212.531C2665.09 229.615 2660.2 244.302 2650.41 256.594C2640.61 268.885 2627.7 276.75 2611.66 280.188ZM2566.34 252.531H2577.91C2612.39 252.531 2629.62 239.354 2629.62 213C2629.62 188.312 2612.85 175.969 2579.31 175.969H2566.34V252.531ZM2864.47 324.406H2761.19L2734.31 383H2695.09L2814.47 126.594L2929.62 383H2889.78L2864.47 324.406ZM2849.62 290.188L2813.84 208.156L2776.34 290.188H2849.62ZM2959.94 383V141.75H3010.56C3034.83 141.75 3054 144.146 3068.06 148.938C3083.17 153.625 3096.86 161.594 3109.16 172.844C3134.05 195.552 3146.5 225.396 3146.5 262.375C3146.5 299.458 3133.53 329.458 3107.59 352.375C3094.57 363.833 3080.93 371.802 3066.66 376.281C3053.32 380.76 3034.42 383 3009.94 383H2959.94ZM2996.34 348.781H3012.75C3029.1 348.781 3042.7 347.062 3053.53 343.625C3064.36 339.979 3074.16 334.198 3082.91 326.281C3100.82 309.927 3109.78 288.625 3109.78 262.375C3109.78 235.917 3100.93 214.458 3083.22 198C3067.28 183.312 3043.79 175.969 3012.75 175.969H2996.34V348.781ZM3228.84 141.75V383H3192.44V141.75H3228.84Z" fill="#5D5FEF"/>
<path fill-rule="evenodd" clip-rule="evenodd" d="M251.347 491.955C248.988 489.379 246.905 486.643 245.088 483.784C238.928 474.073 227.908 468.568 216.478 469.83L213.818 470.123C203.785 471.23 194.568 475.395 186.989 481.75C207.404 487.983 228.995 491.523 251.347 491.955ZM108.776 465.457C107.224 477.86 111.788 490.882 122.468 499.641C136.448 511.11 157.068 510.931 170.878 499.255C171.362 498.846 171.833 498.428 172.291 498.001C198.521 507.073 226.685 512 256 512C266.165 512 276.191 511.408 286.046 510.255C299.178 512.148 312.852 509.633 324.537 502.722C369.25 490.328 409.046 466.105 440.343 433.634C451.656 436.372 464.042 433.897 473.418 426.17C488.599 413.665 491.363 392.534 481.717 376.886C501.04 340.882 512 299.721 512 256C512 114.615 397.385 0 256 0C207.637 0 162.407 13.411 123.824 36.7169C121.177 28.6677 116.459 21.1506 109.668 14.998C90.7483 -2.14698 61.3783 -2.35998 42.2283 14.533C20.0783 34.069 19.2883 67.895 39.8483 88.452C43.7883 92.396 48.2183 95.551 52.9483 97.92C53.3489 98.1208 53.7451 98.3282 54.1366 98.542C20.2144 141.969 0 196.624 0 256C0 342.583 42.9838 419.127 108.776 465.457ZM116.74 446.553C118.399 444.473 120.309 442.528 122.468 440.757C136.338 429.384 156.758 429.444 170.568 440.885C171.678 441.805 172.728 442.771 173.698 443.778C184.688 455.101 199.938 461.233 215.618 459.503C226.208 458.334 235.068 450.63 237.268 440.209C237.858 437.458 238.638 434.741 239.618 432.08C241.348 427.391 239.658 422.129 235.528 419.306L173.448 376.825C159.258 367.117 141.238 364.949 125.138 370.978C104.298 378.783 79.8982 374.306 63.1382 357.542C38.8982 333.3 40.3383 293.097 67.4683 270.755C87.9583 253.886 117.768 253.09 139.148 268.812C140.458 269.78 141.718 270.787 142.928 271.832C151.568 279.326 164.188 280.046 173.938 274.055L199.298 258.46C204.148 255.476 206.158 249.55 204.378 244.14C201.218 234.562 200.608 224.332 202.528 214.499C206.208 195.711 199.858 176.362 185.908 163.254L118.028 99.491C113.128 94.886 105.818 93.915 99.9183 97.134C99.9058 97.1405 99.8933 97.147 99.8808 97.1535C99.8035 97.1938 99.7271 97.2335 99.6582 97.274C89.2582 102.864 82.9283 113.863 83.3283 125.662L83.5182 131.157C83.9882 145.215 89.8082 158.562 99.7882 168.474L99.9183 168.604C101.038 169.727 102.018 170.936 102.908 172.19C106.348 175.413 109.088 179.482 110.728 184.25C116.488 200.935 106.638 219.227 88.9383 223.249C76.0283 226.18 61.5082 219.304 55.6382 207.446C53.0182 202.166 52.1083 196.6 52.5983 191.275C52.8083 189.056 53.0783 186.842 53.3483 184.63C54.0583 178.772 56.6582 173.101 61.1582 168.604L61.2682 168.493C69.3782 160.433 73.7582 149.363 73.3782 137.938L73.0583 128.547C72.8668 122.816 71.2645 117.391 68.5447 112.605C38.0946 152.351 20 202.062 20 256C20 334.256 58.0892 403.616 116.74 446.553ZM128.638 57.2828C130.23 59.4324 132.547 61.0301 135.288 61.693L163.568 68.531C171.248 70.388 179.508 69.034 185.808 64.266C186.198 63.97 186.598 63.683 187.018 63.407C195.338 57.906 206.528 58.438 214.238 64.769C225.808 74.275 225.508 92.049 213.338 101.126C204.988 107.352 193.798 107.193 185.598 100.774C183.058 98.784 181.058 96.405 179.608 93.805C175.238 85.971 167.898 80.236 159.178 78.128L132.058 71.568C127.398 70.443 122.568 72.57 120.258 76.762L120.198 76.863C117.968 80.916 118.768 85.968 122.138 89.137L198.768 161.126C210.078 171.746 226.328 175.376 241.008 170.351C261.498 163.334 285.098 167.998 301.448 184.346C312.628 195.531 318.348 210.114 318.598 224.773C318.788 236.116 326.568 245.938 337.398 249.308L353.688 254.374C363.848 257.537 374.938 254.79 382.448 247.245L382.568 247.126L382.618 247.071C385.958 243.737 387.028 238.749 385.338 234.343L355.298 155.968C351.418 145.837 343.248 138.148 333.188 134.093C328.568 132.232 324.318 129.173 320.918 124.912C312.448 114.31 312.258 98.939 320.508 88.164C332.398 72.626 355.288 72.311 367.628 87.222C375.978 97.316 376.648 112.02 369.388 122.925L369.333 123.012C369.291 123.076 369.25 123.14 369.208 123.204C363.148 132.087 361.518 143.248 365.368 153.285L394.078 228.203C396.028 233.29 401.068 236.544 406.498 236.128C417.158 235.31 428.098 238.973 436.258 247.126C451.648 262.517 451.058 287.839 434.488 302.472C420.098 315.185 397.978 314.971 383.808 302.006C379.088 297.68 375.718 292.467 373.698 286.874C369.858 276.19 361.598 267.686 350.758 264.312L333.888 259.065C322.468 255.512 310.028 258.594 301.578 267.064L301.488 267.161C278.618 290.099 241.478 290.116 218.588 267.199L218.538 267.147C215.508 264.112 210.788 263.555 207.138 265.802L182.288 281.083C170.138 288.55 163.138 301.885 163.138 316.142C163.128 320.086 162.738 324.03 161.938 327.909C158.878 342.871 164.638 358.248 177.248 366.872L243.128 411.95C246.238 414.08 250.428 413.69 253.098 411.021L253.138 410.974C276.028 388.056 313.178 388.079 336.048 411.023L336.628 411.615C345.668 420.679 359.118 423.705 371.168 419.379L393.648 411.301C403.328 407.823 410.138 399.367 412.158 389.28C413.818 381.04 418.218 373.243 425.378 367.362C437.048 357.773 453.358 356.299 466.469 362.878C482.795 330.79 492 294.47 492 256C492 125.661 386.339 20 256 20C209.091 20 165.379 33.686 128.638 57.2828ZM422.066 423.684C414.917 419.013 405.922 417.899 397.768 420.83L374.168 429.308C362.148 433.625 354.008 444.646 352.938 457.369C352.497 462.593 351.357 467.769 349.52 472.745C376.737 460.986 401.302 444.25 422.066 423.684Z" fill="#5D5FEF"/>
</svg>
