<?xml version="1.0" encoding="UTF-8"?>
<!DOCTYPE svg PUBLIC "-//W3C//DTD SVG 1.1//EN" "http://www.w3.org/Graphics/SVG/1.1/DTD/svg11.dtd">
<svg version="1.1" xmlns="http://www.w3.org/2000/svg" xmlns:xlink="http://www.w3.org/1999/xlink" x="0" y="0" width="1921.09" height="559" viewBox="0, 0, 1921.09, 559">
  <g id="Layer_1">
    <g id="Layer_1">
      <path d="M391.078,467.224 L368.49,475.43 C356.98,479.615 349.176,490.292 348.151,502.625 C347.567,509.687 345.662,516.663 342.464,523.154 C372.004,512.332 399.006,496.163 422.341,475.798 C420.503,474.732 418.751,473.492 417.094,472.078 L416.979,471.981 C409.817,465.819 399.935,464.008 391.078,467.224 z" fill="#5D5FEF"/>
      <path d="M217.495,514.696 L214.948,514.977 C204.004,516.198 194.083,521.265 186.327,528.928 C207.613,534.974 230.02,538.287 253.164,538.5 C249.946,535.332 247.189,531.883 244.89,528.211 C238.982,518.804 228.44,513.476 217.495,514.696 z" fill="#5D5FEF"/>
      <path d="M115.221,74.039 C125.39,83.369 130.704,95.925 131.173,108.626 C131.365,113.722 134.85,118.081 139.753,119.283 L166.832,125.91 C174.186,127.702 182.085,126.394 188.128,121.773 C188.501,121.492 188.884,121.211 189.286,120.939 C197.253,115.611 207.968,116.134 215.341,122.267 C226.429,131.471 226.142,148.696 214.479,157.483 C206.493,163.519 195.778,163.364 187.917,157.144 C185.485,155.216 183.579,152.91 182.191,150.392 C178.006,142.806 170.978,137.245 162.628,135.201 L136.65,128.845 C132.198,127.76 127.573,129.824 125.361,133.883 L125.303,133.98 C123.168,137.904 123.925,142.806 127.151,145.867 L200.537,215.612 C211.357,225.901 226.927,229.418 240.974,224.555 C260.594,217.754 283.202,222.268 298.848,238.108 C309.563,248.949 315.03,263.075 315.27,277.278 C315.451,288.264 322.911,297.778 333.281,301.043 L348.87,305.955 C358.608,309.016 369.217,306.362 376.408,299.047 L376.523,298.931 L376.581,298.882 C379.779,295.646 380.794,290.822 379.176,286.549 L350.421,210.613 C346.696,200.799 338.882,193.349 329.25,189.425 C324.826,187.623 320.756,184.659 317.501,180.531 C309.39,170.262 309.208,155.371 317.098,144.927 C328.484,129.872 350.411,129.572 362.218,144.017 C370.213,153.792 370.864,168.043 363.912,178.604 C363.855,178.7 363.788,178.788 363.731,178.875 C357.937,187.478 356.377,198.29 360.054,208.017 L387.545,280.601 C389.412,285.532 394.247,288.681 399.447,288.274 C409.654,287.489 420.13,291.035 427.933,298.931 C442.67,313.841 442.115,338.381 426.248,352.555 C412.46,364.869 391.289,364.665 377.72,352.1 C373.191,347.914 369.964,342.857 368.039,337.441 C364.353,327.094 356.453,318.85 346.064,315.585 L329.92,310.498 C318.985,307.059 307.063,310.043 298.982,318.249 L298.886,318.346 C276.997,340.571 241.434,340.58 219.516,318.385 L219.468,318.326 C216.566,315.391 212.047,314.848 208.552,317.028 L184.747,331.832 C173.123,339.069 166.42,351.983 166.411,365.798 C166.411,369.616 166.028,373.442 165.271,377.202 C162.341,391.695 167.856,406.586 179.931,414.947 L243.004,458.621 C245.992,460.685 250.004,460.307 252.551,457.72 L252.599,457.672 C274.517,435.466 310.089,435.495 331.979,457.72 L332.543,458.292 C341.19,467.079 354.079,470.005 365.607,465.819 L387.142,457.991 C396.411,454.62 402.932,446.424 404.866,436.658 C406.446,428.675 410.659,421.118 417.515,415.421 C430.883,404.319 450.579,404.445 463.822,415.702 C465.91,417.485 467.748,419.442 469.337,421.535 C495.679,380.873 511,332.248 511,280.01 C511,137.235 396.603,21.5 255.5,21.5 C200.652,21.5 149.855,38.978 108.23,68.74 C110.682,70.27 113.028,72.034 115.221,74.039 z" fill="#5D5FEF"/>
      <path d="M127.468,486.523 C140.749,475.508 160.311,475.566 173.535,486.649 C174.598,487.54 175.593,488.48 176.532,489.449 C187.046,500.425 201.658,506.364 216.662,504.688 L216.672,504.688 C226.802,503.555 235.286,496.095 237.402,486 C237.958,483.326 238.705,480.7 239.653,478.123 C241.309,473.58 239.681,468.484 235.736,465.742 L176.292,424.586 C162.705,415.179 145.45,413.087 130.034,418.919 C110.069,426.485 86.715,422.145 70.666,405.908 C47.446,382.423 48.834,343.467 74.812,321.824 C94.423,305.48 122.967,304.715 143.439,319.944 C144.703,320.884 145.91,321.853 147.059,322.87 C155.332,330.127 167.426,330.824 176.752,325.021 L201.045,309.917 C205.689,307.02 207.604,301.285 205.899,296.044 C202.883,286.762 202.299,276.851 204.138,267.328 C207.661,249.124 201.571,230.377 188.214,217.676 L123.226,155.904 C118.524,151.438 111.534,150.498 105.875,153.618 C105.798,153.666 105.712,153.705 105.636,153.753 C95.677,159.169 89.616,169.826 89.999,181.258 L90.171,186.577 C90.631,200.198 96.204,213.132 105.751,222.733 L105.875,222.859 C106.957,223.944 107.895,225.117 108.738,226.337 C112.032,229.457 114.656,233.4 116.236,238.021 C121.741,254.181 112.319,271.901 95.361,275.805 C83.009,278.644 69.105,271.978 63.485,260.488 C60.976,255.373 60.095,249.986 60.574,244.822 C60.775,242.671 61.024,240.53 61.282,238.389 C61.972,232.712 64.461,227.219 68.77,222.859 L68.876,222.753 C76.632,214.944 80.835,204.219 80.471,193.146 L80.165,184.048 C79.744,171.289 72.179,160.099 60.909,154.383 C56.38,152.087 52.138,149.026 48.356,145.208 C46.019,142.845 43.98,140.297 42.227,137.613 C15.541,178.449 -0,227.384 -0,280.01 C-0,371.641 47.12,452.14 118.189,498.052 C120.401,493.77 123.484,489.836 127.468,486.523 z" fill="#5D5FEF"/>
      <path d="M723.281,172.688 L644.531,35.656 L686.406,35.656 L741.562,132.062 L796.875,35.656 L838.75,35.656 L759.688,172.688 L759.688,276.906 L723.281,276.906 L723.281,172.688 z" fill="#5D5FEF"/>
      <path d="M986.25,218.312 L882.969,218.312 L856.094,276.906 L816.875,276.906 L936.25,20.5 L1051.41,276.906 L1011.56,276.906 L986.25,218.312 z M971.406,184.094 L935.625,102.062 L898.125,184.094 L971.406,184.094 z" fill="#5D5FEF"/>
      <path d="M1218.12,71.594 L1188.59,89.094 C1183.07,79.51 1177.81,73.26 1172.81,70.344 C1167.6,67.01 1160.89,65.344 1152.66,65.344 C1142.55,65.344 1134.17,68.208 1127.5,73.938 C1120.83,79.563 1117.5,86.646 1117.5,95.188 C1117.5,106.958 1126.25,116.438 1143.75,123.625 L1167.81,133.469 C1187.4,141.385 1201.72,151.073 1210.78,162.531 C1219.84,173.885 1224.38,187.844 1224.38,204.406 C1224.38,226.594 1216.98,244.927 1202.19,259.406 C1187.29,273.99 1168.8,281.281 1146.72,281.281 C1125.78,281.281 1108.49,275.083 1094.84,262.688 C1081.41,250.292 1073.02,232.844 1069.69,210.344 L1106.56,202.219 C1108.23,216.385 1111.15,226.177 1115.31,231.594 C1122.81,242.01 1133.75,247.219 1148.12,247.219 C1159.48,247.219 1168.91,243.417 1176.41,235.812 C1183.91,228.208 1187.66,218.573 1187.66,206.906 C1187.66,202.219 1186.98,197.948 1185.62,194.094 C1184.38,190.135 1182.34,186.542 1179.53,183.312 C1176.82,179.979 1173.28,176.906 1168.91,174.094 C1164.53,171.177 1159.32,168.417 1153.28,165.812 L1130,156.125 C1096.98,142.167 1080.47,121.75 1080.47,94.875 C1080.47,76.75 1087.4,61.594 1101.25,49.406 C1115.1,37.115 1132.34,30.969 1152.97,30.969 C1180.78,30.969 1202.5,44.51 1218.12,71.594 z" fill="#5D5FEF"/>
      <path d="M1304.69,130.031 L1408.75,130.031 L1408.75,35.656 L1445.16,35.656 L1445.16,276.906 L1408.75,276.906 L1408.75,164.25 L1304.69,164.25 L1304.69,276.906 L1268.28,276.906 L1268.28,35.656 L1304.69,35.656 L1304.69,130.031 z" fill="#5D5FEF"/>
      <path d="M1644.69,218.312 L1541.41,218.312 L1514.53,276.906 L1475.31,276.906 L1594.69,20.5 L1709.84,276.906 L1670,276.906 L1644.69,218.312 z M1629.84,184.094 L1594.06,102.062 L1556.56,184.094 L1629.84,184.094 z" fill="#5D5FEF"/>
      <path d="M1821.88,174.094 L1896.56,276.906 L1852.03,276.906 L1783.12,178.156 L1776.56,178.156 L1776.56,276.906 L1740.16,276.906 L1740.16,35.656 L1782.81,35.656 C1814.69,35.656 1837.71,41.646 1851.88,53.625 C1867.5,66.958 1875.31,84.563 1875.31,106.438 C1875.31,123.521 1870.42,138.208 1860.62,150.5 C1850.83,162.792 1837.92,170.656 1821.88,174.094 z M1776.56,146.438 L1788.12,146.438 C1822.6,146.438 1839.84,133.26 1839.84,106.906 C1839.84,82.219 1823.07,69.875 1789.53,69.875 L1776.56,69.875 L1776.56,146.438 z" fill="#5D5FEF"/>
      <path d="M620,526.906 L670.781,267.531 L753.594,455.031 L839.375,267.531 L885,526.906 L847.656,526.906 L824.375,381.281 L752.969,538 L683.594,381.125 L657.656,526.906 L620,526.906 z" fill="#5D5FEF"/>
      <path d="M924.219,405.188 C924.219,371.229 936.667,342.062 961.562,317.688 C986.354,293.312 1016.15,281.125 1050.94,281.125 C1085.31,281.125 1114.79,293.417 1139.38,318 C1164.06,342.583 1176.41,372.115 1176.41,406.594 C1176.41,441.281 1164.01,470.708 1139.22,494.875 C1114.32,519.146 1084.27,531.281 1049.06,531.281 C1017.92,531.281 989.948,520.5 965.156,498.938 C937.865,475.083 924.219,443.833 924.219,405.188 z M960.938,405.656 C960.938,432.323 969.896,454.25 987.812,471.438 C1005.62,488.625 1026.2,497.219 1049.53,497.219 C1074.84,497.219 1096.2,488.469 1113.59,470.969 C1130.99,453.26 1139.69,431.698 1139.69,406.281 C1139.69,380.552 1131.09,358.99 1113.91,341.594 C1096.82,324.094 1075.68,315.344 1050.47,315.344 C1025.36,315.344 1004.17,324.094 986.875,341.594 C969.583,358.885 960.938,380.24 960.938,405.656 z" fill="#5D5FEF"/>
      <path d="M1303.91,424.094 L1378.59,526.906 L1334.06,526.906 L1265.16,428.156 L1258.59,428.156 L1258.59,526.906 L1222.19,526.906 L1222.19,285.656 L1264.84,285.656 C1296.72,285.656 1319.74,291.646 1333.91,303.625 C1349.53,316.958 1357.34,334.562 1357.34,356.438 C1357.34,373.521 1352.45,388.208 1342.66,400.5 C1332.86,412.792 1319.95,420.656 1303.91,424.094 z M1258.59,396.438 L1270.16,396.438 C1304.64,396.438 1321.88,383.26 1321.88,356.906 C1321.88,332.219 1305.1,319.875 1271.56,319.875 L1258.59,319.875 L1258.59,396.438 z" fill="#5D5FEF"/>
      <path d="M1556.72,468.312 L1453.44,468.312 L1426.56,526.906 L1387.34,526.906 L1506.72,270.5 L1621.88,526.906 L1582.03,526.906 L1556.72,468.312 z M1541.88,434.094 L1506.09,352.062 L1468.59,434.094 L1541.88,434.094 z" fill="#5D5FEF"/>
      <path d="M1652.19,526.906 L1652.19,285.656 L1702.81,285.656 C1727.08,285.656 1746.25,288.052 1760.31,292.844 C1775.42,297.531 1789.11,305.5 1801.41,316.75 C1826.3,339.458 1838.75,369.302 1838.75,406.281 C1838.75,443.365 1825.78,473.365 1799.84,496.281 C1786.82,507.74 1773.18,515.708 1758.91,520.188 C1745.57,524.667 1726.67,526.906 1702.19,526.906 L1652.19,526.906 z M1688.59,492.688 L1705,492.688 C1721.35,492.688 1734.95,490.969 1745.78,487.531 C1756.61,483.885 1766.41,478.104 1775.16,470.188 C1793.07,453.833 1802.03,432.531 1802.03,406.281 C1802.03,379.823 1793.18,358.365 1775.47,341.906 C1759.53,327.219 1736.04,319.875 1705,319.875 L1688.59,319.875 L1688.59,492.688 z" fill="#5D5FEF"/>
      <path d="M1921.09,285.656 L1921.09,526.906 L1884.69,526.906 L1884.69,285.656 L1921.09,285.656 z" fill="#5D5FEF"/>
      <g>
        <path d="M577.5,22 L577.5,539" fill="#000000"/>
        <path d="M577.5,22 L577.5,539" fill-opacity="0" stroke="#000000" stroke-width="10"/>
      </g>
    </g>
  </g>
</svg>
