<svg width="3344" height="517" viewBox="0 0 3344 517" fill="none" xmlns="http://www.w3.org/2000/svg">
<path d="M391.078 445.724L368.49 453.93C356.98 458.115 349.176 468.792 348.151 481.125C347.567 488.187 345.662 495.163 342.464 501.654C372.004 490.832 399.006 474.663 422.341 454.298C420.503 453.232 418.751 451.992 417.094 450.578L416.979 450.481C409.817 444.319 399.935 442.508 391.078 445.724Z" fill="#7879F1"/>
<path d="M217.495 493.196L214.948 493.477C204.004 494.698 194.083 499.765 186.327 507.428C207.613 513.474 230.02 516.787 253.164 517C249.946 513.832 247.189 510.383 244.89 506.711C238.982 497.304 228.44 491.976 217.495 493.196Z" fill="#7879F1"/>
<path d="M115.221 52.5391C125.39 61.8688 130.704 74.4246 131.173 87.1258C131.365 92.2218 134.85 96.5815 139.753 97.7828L166.832 104.41C174.186 106.202 182.085 104.894 188.128 100.273C188.501 99.9917 188.884 99.7108 189.286 99.4395C197.253 94.111 207.968 94.6341 215.341 100.767C226.429 109.971 226.142 127.196 214.479 135.983C206.493 142.019 195.778 141.864 187.917 135.644C185.485 133.716 183.579 131.41 182.191 128.892C178.006 121.306 170.978 115.745 162.628 113.701L136.65 107.345C132.198 106.26 127.573 108.324 125.361 112.383L125.303 112.48C123.168 116.404 123.925 121.306 127.151 124.367L200.537 194.112C211.357 204.401 226.927 207.918 240.974 203.055C260.594 196.254 283.202 200.768 298.848 216.608C309.563 227.449 315.03 241.575 315.27 255.778C315.451 266.764 322.911 276.278 333.281 279.543L348.87 284.455C358.608 287.516 369.217 284.862 376.408 277.547L376.523 277.431L376.581 277.382C379.779 274.146 380.794 269.322 379.176 265.049L350.421 189.113C346.696 179.299 338.882 171.849 329.25 167.925C324.826 166.123 320.756 163.159 317.501 159.031C309.39 148.762 309.208 133.871 317.098 123.427C328.484 108.372 350.411 108.072 362.218 122.517C370.213 132.292 370.864 146.543 363.912 157.104C363.855 157.2 363.788 157.288 363.731 157.375C357.937 165.978 356.377 176.79 360.054 186.517L387.545 259.101C389.412 264.032 394.247 267.181 399.447 266.774C409.654 265.989 420.13 269.535 427.933 277.431C442.67 292.341 442.115 316.881 426.248 331.055C412.46 343.369 391.289 343.165 377.72 330.6C373.191 326.414 369.964 321.357 368.039 315.941C364.353 305.594 356.453 297.35 346.064 294.085L329.92 288.998C318.985 285.559 307.063 288.543 298.982 296.749L298.886 296.846C276.997 319.071 241.434 319.08 219.516 296.885L219.468 296.826C216.566 293.891 212.047 293.348 208.552 295.528L184.747 310.332C173.123 317.569 166.42 330.483 166.411 344.298C166.411 348.116 166.028 351.942 165.271 355.702C162.341 370.195 167.856 385.086 179.931 393.447L243.004 437.121C245.992 439.185 250.004 438.807 252.551 436.22L252.599 436.172C274.517 413.966 310.089 413.995 331.979 436.22L332.543 436.792C341.19 445.579 354.079 448.505 365.607 444.319L387.142 436.491C396.411 433.12 402.932 424.924 404.866 415.158C406.446 407.175 410.659 399.618 417.515 393.921C430.883 382.819 450.579 382.945 463.822 394.202C465.91 395.985 467.748 397.942 469.337 400.035C495.679 359.373 511 310.748 511 258.51C511 115.735 396.603 0 255.5 0C200.652 0 149.855 17.4775 108.23 47.2396C110.682 48.7703 113.028 50.5336 115.221 52.5391Z" fill="#7879F1"/>
<path d="M127.468 465.023C140.749 454.008 160.311 454.066 173.535 465.149C174.598 466.04 175.593 466.98 176.532 467.949C187.046 478.925 201.658 484.864 216.662 483.188H216.672C226.802 482.055 235.286 474.595 237.402 464.5C237.958 461.826 238.705 459.2 239.653 456.623C241.309 452.08 239.681 446.984 235.736 444.242L176.292 403.086C162.705 393.679 145.45 391.587 130.034 397.419C110.069 404.985 86.7146 400.645 70.6663 384.408C47.446 360.923 48.8345 321.967 74.8125 300.324C94.4229 283.98 122.967 283.215 143.439 298.444C144.703 299.384 145.91 300.353 147.059 301.37C155.332 308.627 167.426 309.324 176.752 303.521L201.045 288.417C205.689 285.52 207.604 279.785 205.899 274.544C202.883 265.262 202.299 255.351 204.138 245.828C207.661 227.624 201.571 208.877 188.214 196.176L123.226 134.404C118.524 129.938 111.534 128.998 105.875 132.118C105.798 132.166 105.712 132.205 105.636 132.253C95.6772 137.669 89.616 148.326 89.999 159.758L90.1713 165.077C90.631 178.698 96.2038 191.632 105.751 201.233L105.875 201.359C106.957 202.444 107.895 203.617 108.738 204.837C112.032 207.957 114.656 211.9 116.236 216.521C121.741 232.681 112.319 250.401 95.3612 254.305C83.009 257.144 69.1055 250.478 63.4847 238.988C60.976 233.873 60.0951 228.486 60.5739 223.322C60.775 221.171 61.0239 219.03 61.2825 216.889C61.9719 211.212 64.4614 205.719 68.7704 201.359L68.8757 201.253C76.6317 193.444 80.8353 182.719 80.4715 171.646L80.1651 162.548C79.7438 149.789 72.1792 138.599 60.909 132.883C56.3799 130.587 52.138 127.526 48.3557 123.708C46.0193 121.345 43.9797 118.797 42.2274 116.113C15.5408 156.949 0 205.884 0 258.51C0 350.141 47.1204 430.64 118.189 476.552C120.401 472.27 123.484 468.336 127.468 465.023Z" fill="#7879F1"/>
<path d="M713.75 278.781L635 141.75H676.875L732.031 238.156L787.344 141.75H829.219L750.156 278.781V383H713.75V278.781ZM976.719 324.406H873.438L846.562 383H807.344L926.719 126.594L1041.88 383H1002.03L976.719 324.406ZM961.875 290.188L926.094 208.156L888.594 290.188H961.875ZM1208.59 177.688L1179.06 195.188C1173.54 185.604 1168.28 179.354 1163.28 176.438C1158.07 173.104 1151.35 171.438 1143.12 171.438C1133.02 171.438 1124.64 174.302 1117.97 180.031C1111.3 185.656 1107.97 192.74 1107.97 201.281C1107.97 213.052 1116.72 222.531 1134.22 229.719L1158.28 239.562C1177.86 247.479 1192.19 257.167 1201.25 268.625C1210.31 279.979 1214.84 293.938 1214.84 310.5C1214.84 332.688 1207.45 351.021 1192.66 365.5C1177.76 380.083 1159.27 387.375 1137.19 387.375C1116.25 387.375 1098.96 381.177 1085.31 368.781C1071.88 356.385 1063.49 338.938 1060.16 316.438L1097.03 308.312C1098.7 322.479 1101.61 332.271 1105.78 337.688C1113.28 348.104 1124.22 353.312 1138.59 353.312C1149.95 353.312 1159.38 349.51 1166.88 341.906C1174.38 334.302 1178.12 324.667 1178.12 313C1178.12 308.312 1177.45 304.042 1176.09 300.188C1174.84 296.229 1172.81 292.635 1170 289.406C1167.29 286.073 1163.75 283 1159.38 280.188C1155 277.271 1149.79 274.51 1143.75 271.906L1120.47 262.219C1087.45 248.26 1070.94 227.844 1070.94 200.969C1070.94 182.844 1077.86 167.688 1091.72 155.5C1105.57 143.208 1122.81 137.062 1143.44 137.062C1171.25 137.062 1192.97 150.604 1208.59 177.688ZM1295.16 236.125H1399.22V141.75H1435.62V383H1399.22V270.344H1295.16V383H1258.75V141.75H1295.16V236.125ZM1635.16 324.406H1531.88L1505 383H1465.78L1585.16 126.594L1700.31 383H1660.47L1635.16 324.406ZM1620.31 290.188L1584.53 208.156L1547.03 290.188H1620.31ZM1812.34 280.188L1887.03 383H1842.5L1773.59 284.25H1767.03V383H1730.62V141.75H1773.28C1805.16 141.75 1828.18 147.74 1842.34 159.719C1857.97 173.052 1865.78 190.656 1865.78 212.531C1865.78 229.615 1860.89 244.302 1851.09 256.594C1841.3 268.885 1828.39 276.75 1812.34 280.188ZM1767.03 252.531H1778.59C1813.07 252.531 1830.31 239.354 1830.31 213C1830.31 188.312 1813.54 175.969 1780 175.969H1767.03V252.531ZM2013.75 383L2064.53 123.625L2147.34 311.125L2233.12 123.625L2278.75 383H2241.41L2218.12 237.375L2146.72 394.094L2077.34 237.219L2051.41 383H2013.75ZM2317.97 261.281C2317.97 227.323 2330.42 198.156 2355.31 173.781C2380.1 149.406 2409.9 137.219 2444.69 137.219C2479.06 137.219 2508.54 149.51 2533.12 174.094C2557.81 198.677 2570.16 228.208 2570.16 262.688C2570.16 297.375 2557.76 326.802 2532.97 350.969C2508.07 375.24 2478.02 387.375 2442.81 387.375C2411.67 387.375 2383.7 376.594 2358.91 355.031C2331.61 331.177 2317.97 299.927 2317.97 261.281ZM2354.69 261.75C2354.69 288.417 2363.65 310.344 2381.56 327.531C2399.38 344.719 2419.95 353.312 2443.28 353.312C2468.59 353.312 2489.95 344.562 2507.34 327.062C2524.74 309.354 2533.44 287.792 2533.44 262.375C2533.44 236.646 2524.84 215.083 2507.66 197.688C2490.57 180.188 2469.43 171.438 2444.22 171.438C2419.11 171.438 2397.92 180.188 2380.62 197.688C2363.33 214.979 2354.69 236.333 2354.69 261.75ZM2697.66 280.188L2772.34 383H2727.81L2658.91 284.25H2652.34V383H2615.94V141.75H2658.59C2690.47 141.75 2713.49 147.74 2727.66 159.719C2743.28 173.052 2751.09 190.656 2751.09 212.531C2751.09 229.615 2746.2 244.302 2736.41 256.594C2726.61 268.885 2713.7 276.75 2697.66 280.188ZM2652.34 252.531H2663.91C2698.39 252.531 2715.62 239.354 2715.62 213C2715.62 188.312 2698.85 175.969 2665.31 175.969H2652.34V252.531ZM2950.47 324.406H2847.19L2820.31 383H2781.09L2900.47 126.594L3015.62 383H2975.78L2950.47 324.406ZM2935.62 290.188L2899.84 208.156L2862.34 290.188H2935.62ZM3045.94 383V141.75H3096.56C3120.83 141.75 3140 144.146 3154.06 148.938C3169.17 153.625 3182.86 161.594 3195.16 172.844C3220.05 195.552 3232.5 225.396 3232.5 262.375C3232.5 299.458 3219.53 329.458 3193.59 352.375C3180.57 363.833 3166.93 371.802 3152.66 376.281C3139.32 380.76 3120.42 383 3095.94 383H3045.94ZM3082.34 348.781H3098.75C3115.1 348.781 3128.7 347.062 3139.53 343.625C3150.36 339.979 3160.16 334.198 3168.91 326.281C3186.82 309.927 3195.78 288.625 3195.78 262.375C3195.78 235.917 3186.93 214.458 3169.22 198C3153.28 183.312 3129.79 175.969 3098.75 175.969H3082.34V348.781ZM3314.84 141.75V383H3278.44V141.75H3314.84Z" fill="#7879F1"/>
</svg>
