<?xml version="1.0" encoding="UTF-8"?>
<!DOCTYPE svg PUBLIC "-//W3C//DTD SVG 1.1//EN" "http://www.w3.org/Graphics/SVG/1.1/DTD/svg11.dtd">
<svg version="1.1" xmlns="http://www.w3.org/2000/svg" xmlns:xlink="http://www.w3.org/1999/xlink" x="0" y="0" width="511" height="517" viewBox="0, 0, 511, 517">
  <g id="Layer_1">
    <g id="Layer_1">
      <path d="M511,258.5 C511,401.266 396.609,517 255.5,517 C114.391,517 0,401.266 0,258.5 C0,115.734 114.391,0 255.5,0 C396.609,0 511,115.734 511,258.5 z" fill="#FFFFFF"/>
      <path d="M391.078,445.724 L368.49,453.93 C356.98,458.115 349.176,468.792 348.151,481.125 C347.567,488.187 345.662,495.163 342.464,501.654 C372.004,490.832 399.006,474.663 422.341,454.298 C420.503,453.232 418.751,451.992 417.094,450.578 L416.979,450.481 C409.817,444.319 399.935,442.508 391.078,445.724 z" fill="#5D5FEF"/>
      <path d="M217.495,493.196 L214.948,493.477 C204.004,494.698 194.083,499.765 186.327,507.428 C207.613,513.474 230.02,516.787 253.164,517 C249.946,513.832 247.189,510.383 244.89,506.711 C238.982,497.304 228.44,491.976 217.495,493.196 z" fill="#5D5FEF"/>
      <path d="M115.221,52.539 C125.39,61.869 130.704,74.425 131.173,87.126 C131.365,92.222 134.85,96.581 139.753,97.783 L166.832,104.41 C174.186,106.202 182.085,104.894 188.128,100.273 C188.501,99.992 188.884,99.711 189.286,99.439 C197.253,94.111 207.968,94.634 215.341,100.767 C226.429,109.971 226.142,127.196 214.479,135.983 C206.493,142.019 195.778,141.864 187.917,135.644 C185.485,133.716 183.579,131.41 182.191,128.892 C178.006,121.306 170.978,115.745 162.628,113.701 L136.65,107.345 C132.198,106.26 127.573,108.324 125.361,112.383 L125.303,112.48 C123.168,116.404 123.925,121.306 127.151,124.367 L200.537,194.112 C211.357,204.401 226.927,207.918 240.974,203.055 C260.594,196.254 283.202,200.768 298.848,216.608 C309.563,227.449 315.03,241.575 315.27,255.778 C315.451,266.764 322.911,276.278 333.281,279.543 L348.87,284.455 C358.608,287.516 369.217,284.862 376.408,277.547 L376.523,277.431 L376.581,277.382 C379.779,274.146 380.794,269.322 379.176,265.049 L350.421,189.113 C346.696,179.299 338.882,171.849 329.25,167.925 C324.826,166.123 320.756,163.159 317.501,159.031 C309.39,148.762 309.208,133.871 317.098,123.427 C328.484,108.372 350.411,108.072 362.218,122.517 C370.213,132.292 370.864,146.543 363.912,157.104 C363.855,157.2 363.788,157.288 363.731,157.375 C357.937,165.978 356.377,176.79 360.054,186.517 L387.545,259.101 C389.412,264.032 394.247,267.181 399.447,266.774 C409.654,265.989 420.13,269.535 427.933,277.431 C442.67,292.341 442.115,316.881 426.248,331.055 C412.46,343.369 391.289,343.165 377.72,330.6 C373.191,326.414 369.964,321.357 368.039,315.941 C364.353,305.594 356.453,297.35 346.064,294.085 L329.92,288.998 C318.985,285.559 307.063,288.543 298.982,296.749 L298.886,296.846 C276.997,319.071 241.434,319.08 219.516,296.885 L219.468,296.826 C216.566,293.891 212.047,293.348 208.552,295.528 L184.747,310.332 C173.123,317.569 166.42,330.483 166.411,344.298 C166.411,348.116 166.028,351.942 165.271,355.702 C162.341,370.195 167.856,385.086 179.931,393.447 L243.004,437.121 C245.992,439.185 250.004,438.807 252.551,436.22 L252.599,436.172 C274.517,413.966 310.089,413.995 331.979,436.22 L332.543,436.792 C341.19,445.579 354.079,448.505 365.607,444.319 L387.142,436.491 C396.411,433.12 402.932,424.924 404.866,415.158 C406.446,407.175 410.659,399.618 417.515,393.921 C430.883,382.819 450.579,382.945 463.822,394.202 C465.91,395.985 467.748,397.942 469.337,400.035 C495.679,359.373 511,310.748 511,258.51 C511,115.735 396.603,-0 255.5,-0 C200.652,-0 149.855,17.477 108.23,47.24 C110.682,48.77 113.028,50.534 115.221,52.539 z" fill="#5D5FEF"/>
      <path d="M127.468,465.023 C140.749,454.008 160.311,454.066 173.535,465.149 C174.598,466.04 175.593,466.98 176.532,467.949 C187.046,478.925 201.658,484.864 216.662,483.188 L216.672,483.188 C226.802,482.055 235.286,474.595 237.402,464.5 C237.958,461.826 238.705,459.2 239.653,456.623 C241.309,452.08 239.681,446.984 235.736,444.242 L176.292,403.086 C162.705,393.679 145.45,391.587 130.034,397.419 C110.069,404.985 86.715,400.645 70.666,384.408 C47.446,360.923 48.834,321.967 74.812,300.324 C94.423,283.98 122.967,283.215 143.439,298.444 C144.703,299.384 145.91,300.353 147.059,301.37 C155.332,308.627 167.426,309.324 176.752,303.521 L201.045,288.417 C205.689,285.52 207.604,279.785 205.899,274.544 C202.883,265.262 202.299,255.351 204.138,245.828 C207.661,227.624 201.571,208.877 188.214,196.176 L123.226,134.404 C118.524,129.938 111.534,128.998 105.875,132.118 C105.798,132.166 105.712,132.205 105.636,132.253 C95.677,137.669 89.616,148.326 89.999,159.758 L90.171,165.077 C90.631,178.698 96.204,191.632 105.751,201.233 L105.875,201.359 C106.957,202.444 107.895,203.617 108.738,204.837 C112.032,207.957 114.656,211.9 116.236,216.521 C121.741,232.681 112.319,250.401 95.361,254.305 C83.009,257.144 69.105,250.478 63.485,238.988 C60.976,233.873 60.095,228.486 60.574,223.322 C60.775,221.171 61.024,219.03 61.282,216.889 C61.972,211.212 64.461,205.719 68.77,201.359 L68.876,201.253 C76.632,193.444 80.835,182.719 80.471,171.646 L80.165,162.548 C79.744,149.789 72.179,138.599 60.909,132.883 C56.38,130.587 52.138,127.526 48.356,123.708 C46.019,121.345 43.98,118.797 42.227,116.113 C15.541,156.949 -0,205.884 -0,258.51 C-0,350.141 47.12,430.64 118.189,476.552 C120.401,472.27 123.484,468.336 127.468,465.023 z" fill="#5D5FEF"/>
    </g>
  </g>
</svg>
