<?xml version="1.0" encoding="UTF-8"?>
<!DOCTYPE svg PUBLIC "-//W3C//DTD SVG 1.1//EN" "http://www.w3.org/Graphics/SVG/1.1/DTD/svg11.dtd">
<svg version="1.1" xmlns="http://www.w3.org/2000/svg" xmlns:xlink="http://www.w3.org/1999/xlink" x="0" y="0" width="771" height="770.25" viewBox="0, 0, 514, 513.5">
  <g id="Layer_1" transform="translate(0, 0.25)">
    <g id="Layer_1">
      <path d="M1,0.75 L513,0.75 L513,512.75 L1,512.75 z" fill="#FFFFFF"/>
      <g>
        <path d="M513.5,101.25 L487.5,101.25 L487.5,25.25 L411.5,25.25 L411.5,1.25 L513.5,1.25 L513.5,101.25 z" fill="#5D5FEF"/>
        <path d="M513.5,101.25 L487.5,101.25 L487.5,25.25 L411.5,25.25 L411.5,1.25 L513.5,1.25 L513.5,101.25 z" fill-opacity="0" stroke="#5D5FEF" stroke-width="1"/>
      </g>
      <g>
        <path d="M488,487.25 L488,411.75 L511,411.75 L511,512.75 L412,512.75 L412,487.75 L487.5,487.75 L488,487.75 L488,487.25 z" fill="#5D5FEF"/>
        <path d="M488,487.25 L488,411.75 L511,411.75 L511,512.75 L412,512.75 L412,487.75 L487.5,487.75 L488,487.75 L488,487.25 z" fill-opacity="0" stroke="#5D5FEF" stroke-width="1"/>
      </g>
      <g>
        <path d="M1.5,101.25 L27.5,101.25 L27.5,25.25 L103.5,25.25 L103.5,1.25 L1.5,1.25 L1.5,101.25 z" fill="#5D5FEF"/>
        <path d="M1.5,101.25 L27.5,101.25 L27.5,25.25 L103.5,25.25 L103.5,1.25 L1.5,1.25 L1.5,101.25 z" fill-opacity="0" stroke="#5D5FEF" stroke-width="1"/>
      </g>
      <g>
        <path d="M25,487.25 L25,411.75 L2,411.75 L2,512.75 L101,512.75 L101,487.75 L25.5,487.75 L25,487.75 L25,487.25 z" fill="#5D5FEF"/>
        <path d="M25,487.25 L25,411.75 L2,411.75 L2,512.75 L101,512.75 L101,487.75 L25.5,487.75 L25,487.75 L25,487.25 z" fill-opacity="0" stroke="#5D5FEF" stroke-width="1"/>
      </g>
      <path d="M126.28,278.95 L45,140.07 L71.56,140.07 L138.76,256.23 L206.28,140.07 L232.52,140.07 L151.24,278.95 L151.24,363.75 L126.28,363.75 L126.28,278.95 z M235.575,140.07 L275.255,140.07 L350.135,303.91 L425.015,140.07 L464.695,140.07 L464.695,363.75 L426.295,363.75 L426.295,218.47 L359.735,363.75 L340.535,363.75 L273.975,218.47 L273.975,363.75 L235.575,363.75 L235.575,140.07 z" fill="#5D5FEF"/>
    </g>
  </g>
</svg>
